<svg width="2872" height="1203" viewBox="0 0 2872 1203" fill="none" xmlns="http://www.w3.org/2000/svg">
<path d="M1111.63 1083.27C1111.69 1108.79 1103.56 1133.66 1088.45 1154.23C1073.34 1174.8 1052.04 1189.99 1027.67 1197.57C1003.3 1205.16 977.137 1204.74 953.024 1196.37C928.91 1188 908.11 1172.13 893.671 1151.09L889.508 1144.37C887.673 1141.37 885.994 1138.28 884.472 1135.11L886.889 1140.34C850.457 1085.97 801.185 1041.42 743.434 1010.63C685.682 979.84 621.23 963.759 555.783 963.811C421.017 963.811 296.659 1038.28 224.543 1140.81C227.296 1133.02 234.95 1117.85 237.972 1110.26L253.349 1076.69L253.819 1075.75C334.867 914.592 500.252 802.388 690.28 802.388C705.389 802.388 720.363 803.126 735.068 804.469C805.547 811.179 873.716 833.169 934.83 868.91C995.944 904.651 1048.53 953.282 1088.94 1011.42C1088.94 1011.42 1089.27 1011.96 1089.47 1012.16C1089.76 1012.56 1090.01 1012.99 1090.21 1013.43C1091.1 1014.62 1091.93 1015.85 1092.7 1017.13C1093.57 1018.54 1094.44 1021.96 1095.32 1023.37C1096.19 1024.78 1097.6 1027.27 1098.61 1029.28L1103.04 1039.08C1108.7 1053.13 1111.62 1068.13 1111.63 1083.27V1083.27Z" fill="url(#paint0_linear_551_320)"/>
<path opacity="0.25" d="M1111.63 1083.2C1111.7 1108.73 1103.59 1133.61 1088.48 1154.19C1073.38 1174.77 1052.08 1189.97 1027.7 1197.56C1003.33 1205.16 977.16 1204.74 953.04 1196.38C928.919 1188.01 908.113 1172.14 893.671 1151.09L889.508 1144.37C887.673 1141.33 885.994 1138.24 884.472 1135.11L886.889 1140.34C850.465 1085.96 801.196 1041.4 743.444 1010.59C685.692 979.791 621.237 963.699 555.783 963.744C421.017 963.744 296.659 1038.21 224.543 1140.75C227.296 1132.96 234.95 1117.78 237.972 1110.19L253.349 1076.62L253.819 1075.68C294.253 994.427 356.486 926.019 433.563 878.101C510.64 830.183 599.523 804.643 690.28 804.335C705.389 804.335 720.363 805.074 735.068 806.417C805.547 813.126 873.717 835.117 934.831 870.857C995.944 906.598 1048.53 955.23 1088.94 1013.37C1088.94 1013.37 1089.27 1013.9 1089.47 1014.11C1089.76 1014.51 1090.01 1014.93 1090.21 1015.38C1091.1 1016.57 1091.93 1017.8 1092.7 1019.07L1095.32 1023.3C1096.46 1025.18 1097.6 1027.2 1098.61 1029.21L1103.04 1039.02C1108.7 1053.06 1111.62 1068.06 1111.63 1083.2Z" fill="url(#paint1_linear_551_320)"/>
<path d="M1872.15 369.888C1872.18 385.708 1869.03 401.373 1862.88 415.951L1860.53 421.256L1557.83 1092.47L1538.16 1136.05C1543.54 1122.31 1546.29 1107.69 1546.28 1092.94C1546.31 1076.93 1543.11 1061.08 1536.88 1046.34L1534.33 1040.83L1426.89 803.865L1644.65 324.227V323.825L1647.47 317.781C1659.29 293.824 1678.87 274.57 1703.02 263.149C1727.17 251.727 1754.47 248.81 1780.49 254.871C1806.51 260.932 1829.71 275.615 1846.33 296.533C1862.95 317.451 1872 343.375 1872.02 370.089L1872.15 369.888Z" fill="url(#paint2_linear_551_320)"/>
<path opacity="0.25" d="M1871.95 369.351C1871.97 385.17 1868.82 400.834 1862.68 415.414L1860.33 420.652L1562.06 1082.33L1542.45 1125.91C1547.81 1112.17 1550.54 1097.54 1550.51 1082.8C1550.56 1066.79 1547.38 1050.95 1541.18 1036.2L1538.63 1030.69L1431.19 793.726L1644.59 323.69V323.355L1647.41 317.244C1659.25 293.319 1678.83 274.1 1702.97 262.706C1727.12 251.312 1754.4 248.413 1780.4 254.479C1806.4 260.545 1829.58 275.22 1846.19 296.121C1862.79 317.023 1871.85 342.924 1871.88 369.619L1871.95 369.351Z" fill="url(#paint3_linear_551_320)"/>
<path d="M1550.71 1083.33C1550.75 1098.1 1548.02 1112.75 1542.66 1126.51L1537.22 1138.53C1527.16 1157.84 1512.02 1174.03 1493.43 1185.37C1474.84 1196.7 1453.51 1202.74 1431.74 1202.84C1409.97 1202.93 1388.59 1197.08 1369.9 1185.92C1351.21 1174.75 1335.93 1158.69 1325.7 1139.47L1318.99 1125.23L1299.85 1082.93L1003.26 424.882L997.415 411.99C987.142 383.984 987.796 353.137 999.245 325.592C1010.69 298.046 1032.1 275.824 1059.2 263.351C1086.29 250.878 1117.09 249.069 1145.46 258.285C1173.84 267.501 1197.69 287.065 1212.29 313.081V313.081L1219.47 328.861L1430.59 793.793L1538.02 1030.76L1540.51 1036.33C1547.07 1051.14 1550.54 1067.14 1550.71 1083.33V1083.33Z" fill="url(#paint4_linear_551_320)"/>
<path d="M558.469 405.745L468.692 603.294C466.979 607.03 464.364 610.281 461.082 612.754C457.8 615.227 453.954 616.845 449.891 617.462C363.235 631.928 280.543 664.287 207.084 712.477C202.601 715.406 197.288 716.799 191.944 716.447C186.6 716.095 181.516 714.016 177.456 710.524C173.396 707.032 170.58 702.316 169.432 697.085C168.285 691.854 168.867 686.392 171.093 681.521L427.396 117.009L446.735 74.3702C435.886 103.103 436.487 134.905 448.414 163.207L450.831 168.512L558.469 405.745Z" fill="url(#paint5_linear_551_320)"/>
<path d="M1098.14 1028C1096.53 1025.59 1092.29 1019.28 1090.62 1016.93C1090.08 1015.99 1090.08 1014.71 1089.47 1013.84C1088.87 1012.96 1089.14 1013.3 1088.94 1013.1C1048.53 954.961 995.944 906.329 934.831 870.589C873.717 834.848 805.547 812.858 735.068 806.148C720.363 804.805 705.389 804.066 690.28 804.066C599.608 804.402 510.817 829.96 433.842 877.881C356.867 925.802 294.744 994.196 254.423 1075.41L253.953 1076.35C248.447 1087.43 243.277 1098.71 238.576 1109.92L225.147 1139.87C224.207 1141.22 223.334 1142.63 222.394 1144.1C220.984 1146.18 219.574 1148.33 218.298 1150.48C203.919 1171.59 183.159 1187.53 159.06 1195.98C134.961 1204.42 108.791 1204.93 84.3829 1197.42C59.9752 1189.91 38.6136 1174.79 23.4283 1154.26C8.24312 1133.73 0.0326345 1108.87 0 1083.33C0.080101 1070.2 2.34949 1057.18 6.71479 1044.79L16.1826 1023.91C16.5868 1023.04 17.0583 1022.21 17.5927 1021.42C18.6 1019.75 19.6072 1018.13 20.7487 1016.59C21.0222 1016.05 21.3364 1015.54 21.6888 1015.05C93.6729 904.406 198.206 818.821 320.876 770.089C443.547 721.358 578.314 711.88 706.597 742.962L648.649 615.381L555.985 411.251L448.548 174.018L446.131 168.713C434.204 140.411 433.603 108.609 444.452 79.8764L451.167 65.5739C461.665 46.2182 477.303 30.1366 496.358 19.1016C515.412 8.06662 537.144 2.50661 559.157 3.03436C581.17 3.56212 602.61 10.1572 621.114 22.0926C639.618 34.0281 654.467 50.8406 664.026 70.6771L666.376 75.9818L687.527 122.515L982.575 772.44L1098.14 1028Z" fill="url(#paint6_linear_551_320)"/>
<path opacity="0.25" d="M555.783 411.654L468.491 603.563C466.796 607.273 464.212 610.507 460.967 612.979C457.722 615.45 453.918 617.083 449.891 617.731C363.235 632.196 280.543 664.555 207.084 712.745C202.601 715.674 197.288 717.068 191.944 716.715C186.6 716.363 181.516 714.285 177.456 710.793C173.396 707.301 170.58 702.584 169.432 697.354C168.285 692.123 168.867 686.661 171.093 681.79L424.71 122.918L444.049 80.2792C433.2 109.012 433.801 140.814 445.728 169.116L448.145 174.421L555.783 411.654Z" fill="url(#paint7_linear_551_320)"/>
<path d="M2870.84 715.507C2870.44 708.053 2869.76 700.667 2868.89 693.281C2867.32 680.97 2865.22 668.861 2862.58 656.954C2861.97 653.865 2861.24 650.843 2860.43 647.822C2859.29 643.188 2858.01 638.622 2856.74 634.392L2854.39 626.603C2853.38 623.38 2852.24 619.888 2851.16 616.934C2850.56 615.121 2849.89 613.308 2849.22 611.562C2848.55 609.816 2847.87 607.802 2847.14 605.854C2846.81 604.86 2846.41 603.894 2845.93 602.967C2844.99 600.326 2843.98 597.774 2842.91 595.312C2841.63 592.223 2840.29 589.202 2838.94 586.18L2836.53 580.875L2833.97 575.705C2831.83 571.139 2829.54 566.774 2827.26 562.275C2826.05 559.858 2824.64 557.441 2823.3 555.023L2822.02 552.807C2820.88 550.86 2819.74 548.913 2818.53 547.033L2815.71 542.265L2812.69 537.565C2811.75 536.088 2810.81 534.677 2809.73 533.133C2807.92 530.38 2806.04 527.56 2804.03 524.807C2802.01 522.054 2801.47 521.114 2800.13 519.301L2797.24 515.54C2795.5 513.123 2793.69 510.773 2791.81 508.49C2790.06 506.207 2788.25 504.058 2786.43 501.775C2784.62 499.492 2784.22 499.089 2783.08 497.813C2781.2 495.53 2779.18 493.314 2777.1 491.099C2775.02 488.883 2773.07 486.6 2770.92 484.384C2768.77 482.168 2765.01 478.206 2761.92 475.184L2755.21 468.872C2752.12 465.918 2748.96 463.165 2745.81 460.345C2743.86 458.599 2741.91 456.987 2739.97 455.376C2727.98 445.308 2715.35 436.022 2702.16 427.577C2656.44 398.334 2604.66 379.884 2550.75 373.625C2496.84 367.366 2442.21 373.462 2391 391.451C2311.13 419.806 2243.68 475.169 2200.3 547.973C2168.04 599.843 2150 659.29 2147.99 720.341C2147.99 722.423 2147.99 724.37 2147.99 726.452C2147.99 728.533 2147.99 730.951 2147.99 733.167C2147.99 735.383 2147.99 737.666 2147.99 739.881C2149.72 802.036 2175.17 861.172 2219.12 905.151C2263.08 949.13 2322.2 974.616 2384.35 976.376L2397.78 976.376C2458.9 974.641 2517.13 949.975 2560.89 907.278C2604.66 864.582 2630.76 806.982 2634.01 745.925C2632.02 809.415 2614.06 871.379 2581.77 926.083C2538.35 998.839 2470.9 1054.17 2391.07 1082.54C2339.86 1100.53 2285.23 1106.62 2231.32 1100.36C2177.41 1094.1 2125.63 1075.65 2079.9 1046.41C2073.19 1042.11 2066.47 1037.55 2059.76 1032.98L2052.57 1027.54C2044.38 1021.23 2036.5 1014.52 2028.94 1007.4C2027.33 1005.99 2025.78 1004.58 2024.31 1003.1C2022.83 1001.62 2021.28 1000.21 2019.81 998.736C2019.35 998.321 2018.92 997.873 2018.53 997.394C2016.38 995.312 2014.3 993.163 2012.15 991.014L2011.01 989.739C2008.86 987.523 2006.78 985.307 2004.83 983.024C2002.88 980.741 2000.8 978.659 1998.92 976.309C1997.04 973.959 1996.04 972.885 1994.63 971.139C1993.22 969.393 1992.07 965.901 1990.87 964.424C1989.66 962.947 1989.59 965.095 1988.99 964.424C1988.38 963.752 1986.1 960.731 1984.62 958.851C1983.14 956.971 1982.47 956.03 1981.46 954.553C1980.46 953.076 1979.45 951.8 1978.44 950.39L1975.02 945.555L1969.24 936.826L1966.22 932.126C1965.21 930.581 1964.34 928.97 1963.4 927.425C1962.46 925.881 1961.52 924.404 1960.65 922.859L1957.63 917.689L1955.75 914.063C1954.54 911.959 1953.4 909.877 1952.32 907.818C1950.85 904.998 1949.37 902.043 1947.96 899.156C1946.55 896.269 1945.81 894.657 1944.73 892.441C1942.72 888.01 1940.71 883.578 1938.89 879.012C1938.22 877.467 1937.55 875.856 1936.95 874.311C1936.34 872.767 1934.93 869.41 1934.06 866.992C1933.19 864.575 1931.71 858.397 1930.63 855.241C1930.23 854.167 1929.83 855.241 1929.49 854.234C1928.62 851.615 1927.81 848.93 1927.01 846.311C1925.53 841.678 1924.19 837.044 1922.98 832.344C1922.24 829.994 1921.64 827.509 1921.03 825.092C1920.16 821.533 1919.29 817.974 1918.55 814.348C1917.81 810.722 1917.07 807.096 1916.4 803.403C1914.32 792.458 1912.84 779.096 1911.83 767.815C1911.5 764.525 1911.23 761.1 1911.03 757.81C1910.99 757.363 1910.99 756.914 1911.03 756.467C1911.03 755.258 1911.03 754.05 1911.03 752.841C1911.03 751.632 1911.03 750.961 1911.03 749.954C1911.03 747.805 1911.03 745.589 1911.03 743.239C1911.03 739.881 1911.03 736.524 1911.03 733.099C1911.03 729.675 1911.03 726.385 1911.03 723.094C1911.03 718.73 1911.36 714.432 1911.63 710.068C1917.34 590.81 1967.28 477.958 2051.7 393.533C2136.13 309.109 2248.98 259.17 2368.24 253.462C2372.53 253.462 2376.83 252.925 2381.13 252.858L2391.27 252.858L2401.41 252.858C2405.71 252.858 2410 253.193 2414.3 253.462C2660.87 265.079 2858.75 468 2870.91 714.365C2870.77 714.634 2870.84 715.037 2870.84 715.507Z" fill="url(#paint8_linear_551_320)"/>
<path d="M2870.84 712.649C2870.44 705.196 2869.76 697.809 2868.89 690.423C2867.32 678.113 2865.22 666.004 2862.58 654.096C2861.97 651.007 2861.24 647.986 2860.43 644.964C2859.29 640.331 2858.01 635.765 2856.74 631.534L2854.39 623.745C2853.38 620.522 2852.24 617.03 2851.16 614.076C2850.56 612.263 2849.89 610.45 2849.22 608.704C2848.55 606.958 2847.87 604.944 2847.14 602.997C2846.81 602.002 2846.41 601.036 2845.93 600.109C2844.99 597.468 2843.98 594.916 2842.91 592.454C2841.63 589.366 2840.29 586.344 2838.94 583.322L2836.53 578.018L2833.97 572.847C2831.83 568.281 2829.54 563.917 2827.26 559.418C2826.05 557 2824.64 554.583 2823.3 552.166L2822.02 549.95C2820.88 548.002 2819.74 546.055 2818.53 544.175L2815.71 539.408L2812.69 534.707C2811.75 533.23 2810.81 531.82 2809.73 530.275C2807.92 527.522 2806.04 524.702 2804.03 521.949C2802.01 519.196 2801.47 518.256 2800.13 516.443L2797.24 512.683C2795.5 510.265 2793.69 507.915 2791.81 505.632C2790.06 503.349 2788.25 501.2 2786.43 498.917C2784.62 496.634 2784.22 496.231 2783.08 494.956C2781.2 492.673 2779.18 490.457 2777.1 488.241C2775.02 486.025 2773.07 483.742 2770.92 481.526C2768.77 479.31 2765.01 475.348 2761.92 472.327L2755.21 466.015C2752.12 463.06 2748.96 460.307 2745.81 457.487C2743.86 455.741 2741.91 454.13 2739.97 452.518C2727.98 442.45 2715.35 433.164 2702.16 424.719C2656.44 395.477 2604.66 377.027 2550.75 370.767C2496.84 364.508 2442.21 370.604 2391 388.593C2311.13 416.949 2243.68 472.311 2200.3 545.115C2168.04 596.985 2150 656.433 2147.99 717.484C2147.99 719.565 2147.99 721.513 2147.99 723.594C2147.99 725.676 2147.99 728.093 2147.99 730.309C2147.99 732.525 2147.99 734.808 2147.99 737.024C2149.72 799.178 2175.17 858.314 2219.12 902.293C2263.08 946.273 2322.2 971.758 2384.35 973.519L2397.78 973.519C2458.9 971.784 2517.13 947.117 2560.89 904.421C2604.66 861.724 2630.76 804.124 2634.01 743.067C2632.02 806.558 2614.06 868.522 2581.77 923.225C2538.35 995.981 2470.9 1051.31 2391.07 1079.68C2339.86 1097.67 2285.23 1103.76 2231.32 1097.51C2177.41 1091.25 2125.63 1072.8 2079.9 1043.55C2073.19 1039.26 2066.47 1034.69 2059.76 1030.12L2052.57 1024.69C2044.38 1018.37 2036.5 1011.66 2028.94 1004.54C2027.33 1003.13 2025.78 1001.72 2024.31 1000.24C2022.83 998.766 2021.28 997.356 2019.81 995.879C2019.35 995.464 2018.92 995.015 2018.53 994.536C2016.38 992.454 2014.3 990.306 2012.15 988.157L2011.01 986.881C2008.86 984.665 2006.78 982.449 2004.83 980.166C2002.88 977.883 2000.8 975.802 1998.92 973.451C1997.04 971.101 1996.04 970.027 1994.63 968.281C1993.22 966.535 1992.07 963.043 1990.87 961.566C1989.66 960.089 1989.59 962.238 1988.99 961.566C1988.38 960.895 1986.1 957.873 1984.62 955.993C1983.14 954.113 1982.47 953.173 1981.46 951.695C1980.46 950.218 1979.45 948.942 1978.44 947.532L1975.02 942.698L1969.24 933.968L1966.22 929.268C1965.21 927.724 1964.34 926.112 1963.4 924.568C1962.46 923.023 1961.52 921.546 1960.65 920.002L1957.63 914.831L1955.75 911.205C1954.54 909.101 1953.4 907.02 1952.32 904.961C1950.85 902.14 1949.37 899.186 1947.96 896.298C1946.55 893.411 1945.81 891.8 1944.73 889.584C1942.72 885.152 1940.71 880.72 1938.89 876.154C1938.22 874.61 1937.55 872.998 1936.95 871.454C1936.34 869.909 1934.93 866.552 1934.06 864.135C1933.19 861.717 1931.71 855.54 1930.63 852.384C1930.23 851.309 1929.83 852.384 1929.49 851.377C1928.62 848.758 1927.81 846.072 1927.01 843.453C1925.53 838.82 1924.19 834.187 1922.98 829.486C1922.24 827.136 1921.64 824.652 1921.03 822.234C1920.16 818.676 1919.29 815.117 1918.55 811.491C1917.81 807.865 1917.07 804.239 1916.4 800.546C1914.32 789.601 1912.84 776.238 1911.83 764.957C1911.5 761.667 1911.23 758.242 1911.03 754.952C1910.99 754.505 1910.99 754.056 1911.03 753.609C1911.03 752.401 1911.03 751.192 1911.03 749.983C1911.03 748.775 1911.03 748.103 1911.03 747.096C1911.03 744.947 1911.03 742.731 1911.03 740.381C1911.03 737.024 1911.03 733.666 1911.03 730.242C1911.03 726.817 1911.03 723.527 1911.03 720.237C1911.03 715.872 1911.36 711.575 1911.63 707.21C1917.34 587.952 1967.28 475.1 2051.7 390.676C2136.13 306.251 2248.98 256.312 2368.24 250.604C2372.53 250.604 2376.83 250.067 2381.13 250L2391.27 250L2401.41 250C2405.71 250 2410 250.336 2414.3 250.604C2660.87 262.221 2858.75 465.142 2870.91 711.508C2870.77 711.776 2870.84 712.179 2870.84 712.649Z" fill="url(#paint9_linear_551_320)"/>
<path d="M2870.84 712.649C2870.44 705.196 2869.76 697.809 2868.89 690.423C2867.32 678.113 2865.22 666.004 2862.58 654.096C2861.97 651.007 2861.24 647.986 2860.43 644.964C2859.29 640.331 2858.01 635.765 2856.74 631.534L2854.39 623.745C2853.38 620.522 2852.24 617.03 2851.16 614.076C2850.56 612.263 2849.89 610.45 2849.22 608.704C2848.55 606.958 2847.87 604.944 2847.14 602.997C2846.81 602.002 2846.41 601.036 2845.93 600.109C2844.99 597.468 2843.98 594.916 2842.91 592.454C2841.63 589.366 2840.29 586.344 2838.94 583.322L2836.53 578.018L2833.97 572.847C2831.83 568.281 2829.54 563.917 2827.26 559.418C2826.05 557 2824.64 554.583 2823.3 552.166L2822.02 549.95C2820.88 548.002 2819.74 546.055 2818.53 544.175L2815.71 539.408L2812.69 534.707C2811.75 533.23 2810.81 531.82 2809.73 530.275C2807.92 527.522 2806.04 524.702 2804.03 521.949C2802.01 519.196 2801.47 518.256 2800.13 516.443L2797.24 512.683C2795.5 510.265 2793.69 507.915 2791.81 505.632C2790.06 503.349 2788.25 501.2 2786.43 498.917C2784.62 496.634 2784.22 496.231 2783.08 494.956C2781.2 492.673 2779.18 490.457 2777.1 488.241C2775.02 486.025 2773.07 483.742 2770.92 481.526C2768.77 479.31 2765.01 475.348 2761.92 472.327L2755.21 466.015C2752.12 463.06 2748.96 460.307 2745.81 457.487C2743.86 455.741 2741.91 454.13 2739.97 452.518C2727.98 442.45 2715.35 433.164 2702.16 424.719C2656.44 395.477 2604.66 377.027 2550.75 370.767C2496.84 364.508 2442.21 370.604 2391 388.593C2311.13 416.949 2243.68 472.311 2200.3 545.115C2168.04 596.985 2150 656.433 2147.99 717.484C2147.99 719.565 2147.99 721.513 2147.99 723.594C2147.99 725.676 2147.99 728.093 2147.99 730.309C2147.99 732.525 2147.99 734.808 2147.99 737.024C2149.72 799.178 2175.17 858.314 2219.12 902.293C2263.08 946.273 2322.2 971.758 2384.35 973.519L2397.78 973.519C2458.9 971.784 2517.13 947.117 2560.89 904.421C2604.66 861.724 2630.76 804.124 2634.01 743.067C2632.02 806.558 2614.06 868.522 2581.77 923.225C2538.35 995.981 2470.9 1051.31 2391.07 1079.68C2339.86 1097.67 2285.23 1103.76 2231.32 1097.51C2177.41 1091.25 2125.63 1072.8 2079.9 1043.55C2073.19 1039.26 2066.47 1034.69 2059.76 1030.12L2052.57 1024.69C2044.38 1018.37 2036.5 1011.66 2028.94 1004.54C2027.33 1003.13 2025.78 1001.72 2024.31 1000.24C2022.83 998.766 2021.28 997.356 2019.81 995.879C2019.35 995.464 2018.92 995.015 2018.53 994.536C2016.38 992.454 2014.3 990.306 2012.15 988.157L2011.01 986.881C2008.86 984.665 2006.78 982.449 2004.83 980.166C2002.88 977.883 2000.8 975.802 1998.92 973.451C1997.04 971.101 1996.04 970.027 1994.63 968.281C1993.22 966.535 1992.07 963.043 1990.87 961.566C1989.66 960.089 1989.59 962.238 1988.99 961.566C1988.38 960.895 1986.1 957.873 1984.62 955.993C1983.14 954.113 1982.47 953.173 1981.46 951.695C1980.46 950.218 1979.45 948.942 1978.44 947.532L1975.02 942.698L1969.24 933.968L1966.22 929.268C1965.21 927.724 1964.34 926.112 1963.4 924.568C1962.46 923.023 1961.52 921.546 1960.65 920.002L1957.63 914.831L1955.75 911.205C1954.54 909.101 1953.4 907.02 1952.32 904.961C1950.85 902.14 1949.37 899.186 1947.96 896.298C1946.55 893.411 1945.81 891.8 1944.73 889.584C1942.72 885.152 1940.71 880.72 1938.89 876.154C1938.22 874.61 1937.55 872.998 1936.95 871.454C1936.34 869.909 1934.93 866.552 1934.06 864.135C1933.19 861.717 1931.71 855.54 1930.63 852.384C1930.23 851.309 1929.83 852.384 1929.49 851.377C1928.62 848.758 1927.81 846.072 1927.01 843.453C1925.53 838.82 1924.19 834.187 1922.98 829.486C1922.24 827.136 1921.64 824.652 1921.03 822.234C1920.16 818.676 1919.29 815.117 1918.55 811.491C1917.81 807.865 1917.07 804.239 1916.4 800.546C1914.32 789.601 1912.84 776.238 1911.83 764.957C1911.5 761.667 1911.23 758.242 1911.03 754.952C1910.99 754.505 1910.99 754.056 1911.03 753.609C1911.03 752.401 1911.03 751.192 1911.03 749.983C1911.03 748.775 1911.03 748.103 1911.03 747.096C1911.03 744.947 1911.03 742.731 1911.03 740.381C1911.03 737.024 1911.03 733.666 1911.03 730.242C1911.03 726.817 1911.03 723.527 1911.03 720.237C1911.03 715.872 1911.36 711.575 1911.63 707.21C1917.34 587.952 1967.28 475.1 2051.7 390.676C2136.13 306.251 2248.98 256.312 2368.24 250.604C2372.53 250.604 2376.83 250.067 2381.13 250L2391.27 250L2401.41 250C2405.71 250 2410 250.336 2414.3 250.604C2660.87 262.221 2858.75 465.142 2870.91 711.508C2870.77 711.776 2870.84 712.179 2870.84 712.649Z" fill="url(#paint10_linear_551_320)" fill-opacity="0.2"/>
<path d="M1911.07 740.242C1911.47 747.695 1912.14 755.082 1913.01 762.468C1914.58 774.778 1916.69 786.887 1919.33 798.795C1919.93 801.884 1920.67 804.905 1921.48 807.927C1922.62 812.56 1923.89 817.126 1925.17 821.357L1927.52 829.146C1928.53 832.369 1929.67 835.861 1930.74 838.815C1931.35 840.628 1932.02 842.441 1932.69 844.187C1933.36 845.933 1934.03 847.947 1934.77 849.895C1935.09 850.889 1935.5 851.855 1935.98 852.782C1936.92 855.423 1937.93 857.975 1939 860.437C1940.28 863.526 1941.62 866.547 1942.96 869.569L1945.38 874.874L1947.93 880.044C1950.08 884.61 1952.36 888.975 1954.65 893.474C1955.86 895.891 1957.27 898.308 1958.61 900.726L1959.88 902.941C1961.03 904.889 1962.17 906.836 1963.38 908.716L1966.2 913.484L1969.22 918.184C1970.16 919.661 1971.1 921.071 1972.17 922.616C1973.98 925.369 1975.87 928.189 1977.88 930.942C1979.89 933.695 1980.43 934.635 1981.77 936.448L1984.66 940.208C1986.41 942.626 1988.22 944.976 1990.1 947.259C1991.85 949.542 1993.66 951.691 1995.47 953.974C1997.29 956.257 1997.69 956.66 1998.83 957.935C2000.71 960.218 2002.72 962.434 2004.81 964.65C2006.89 966.866 2008.83 969.149 2010.98 971.365C2013.13 973.581 2016.89 977.543 2019.98 980.564L2026.7 986.876C2029.78 989.831 2032.94 992.584 2036.1 995.404C2038.04 997.15 2039.99 998.761 2041.94 1000.37C2053.93 1010.44 2066.56 1019.73 2079.74 1028.17C2125.47 1057.41 2177.25 1075.86 2231.16 1082.12C2285.07 1088.38 2339.7 1082.29 2390.91 1064.3C2470.77 1035.94 2538.22 980.58 2581.61 907.776C2613.87 855.906 2631.91 796.458 2633.91 735.407C2633.91 733.326 2633.91 731.378 2633.91 729.297C2633.91 727.215 2633.91 724.798 2633.91 722.582C2633.91 720.366 2633.91 718.083 2633.91 715.867C2632.19 653.713 2606.74 594.577 2562.78 550.598C2518.83 506.618 2459.71 481.133 2397.55 479.372H2384.12C2323.01 481.107 2264.78 505.774 2221.01 548.47C2177.24 591.167 2151.14 648.767 2147.9 709.824C2149.88 646.334 2167.85 584.369 2200.14 529.666C2243.56 456.91 2311 401.58 2390.84 373.212C2442.05 355.223 2496.68 349.127 2550.59 355.386C2604.5 361.645 2656.28 380.095 2702 409.337C2708.72 413.635 2715.43 418.201 2722.15 422.767L2729.33 428.206C2737.52 434.518 2745.4 441.232 2752.97 448.35C2754.58 449.76 2756.12 451.17 2757.6 452.648C2759.08 454.125 2760.62 455.535 2762.1 457.012C2762.56 457.427 2762.98 457.876 2763.38 458.355C2765.52 460.437 2767.61 462.585 2769.75 464.734L2770.9 466.01C2773.04 468.226 2775.13 470.442 2777.07 472.725C2779.02 475.008 2781.1 477.089 2782.98 479.44C2784.86 481.79 2785.87 482.864 2787.28 484.61C2788.69 486.356 2789.83 489.848 2791.04 491.325C2792.25 492.802 2792.32 490.653 2792.92 491.325C2793.52 491.996 2795.81 495.018 2797.29 496.898C2798.76 498.778 2799.43 499.718 2800.44 501.196C2801.45 502.673 2802.46 503.949 2803.46 505.359L2806.89 510.193L2812.66 518.923L2815.68 523.623C2816.69 525.167 2817.56 526.779 2818.5 528.323C2819.44 529.868 2820.38 531.345 2821.26 532.889L2824.28 538.06L2826.16 541.686C2827.37 543.79 2828.51 545.871 2829.58 547.93C2831.06 550.751 2832.54 553.705 2833.95 556.593C2835.36 559.48 2836.1 561.091 2837.17 563.307C2839.19 567.739 2841.2 572.171 2843.01 576.737C2843.68 578.281 2844.36 579.893 2844.96 581.437C2845.56 582.982 2846.97 586.339 2847.85 588.756C2848.72 591.174 2850.2 597.351 2851.27 600.507C2851.68 601.582 2852.08 600.507 2852.41 601.514C2853.29 604.133 2854.09 606.819 2854.9 609.438C2856.38 614.071 2857.72 618.704 2858.93 623.405C2859.67 625.755 2860.27 628.239 2860.87 630.657C2861.75 634.215 2862.62 637.774 2863.36 641.4C2864.1 645.026 2864.84 648.652 2865.51 652.345C2867.59 663.291 2869.07 676.653 2870.07 687.934C2870.41 691.224 2870.68 694.649 2870.88 697.939C2870.91 698.386 2870.91 698.835 2870.88 699.282C2870.88 700.49 2870.88 701.699 2870.88 702.908C2870.88 704.116 2870.88 704.788 2870.88 705.795C2870.88 707.944 2870.88 710.16 2870.88 712.51C2870.88 715.867 2870.88 719.225 2870.88 722.649C2870.88 726.074 2870.88 729.364 2870.88 732.654C2870.88 737.019 2870.54 741.316 2870.27 745.681C2864.57 864.939 2814.63 977.791 2730.2 1062.22C2645.78 1146.64 2532.93 1196.58 2413.67 1202.29C2409.37 1202.29 2405.07 1202.82 2400.78 1202.89H2390.64H2380.5C2376.2 1202.89 2371.9 1202.56 2367.61 1202.29C2121.04 1190.67 1923.15 987.749 1911 741.384C1911.13 741.115 1911.07 740.712 1911.07 740.242Z" fill="url(#paint11_linear_551_320)"/>
<path d="M1911.07 740.242C1911.47 747.695 1912.14 755.082 1913.01 762.468C1914.58 774.778 1916.69 786.887 1919.33 798.795C1919.93 801.884 1920.67 804.905 1921.48 807.927C1922.62 812.56 1923.89 817.126 1925.17 821.357L1927.52 829.146C1928.53 832.369 1929.67 835.861 1930.74 838.815C1931.35 840.628 1932.02 842.441 1932.69 844.187C1933.36 845.933 1934.03 847.947 1934.77 849.895C1935.09 850.889 1935.5 851.855 1935.98 852.782C1936.92 855.423 1937.93 857.975 1939 860.437C1940.28 863.526 1941.62 866.547 1942.96 869.569L1945.38 874.874L1947.93 880.044C1950.08 884.61 1952.36 888.975 1954.65 893.474C1955.86 895.891 1957.27 898.308 1958.61 900.726L1959.88 902.941C1961.03 904.889 1962.17 906.836 1963.38 908.716L1966.2 913.484L1969.22 918.184C1970.16 919.661 1971.1 921.071 1972.17 922.616C1973.98 925.369 1975.87 928.189 1977.88 930.942C1979.89 933.695 1980.43 934.635 1981.77 936.448L1984.66 940.208C1986.41 942.626 1988.22 944.976 1990.1 947.259C1991.85 949.542 1993.66 951.691 1995.47 953.974C1997.29 956.257 1997.69 956.66 1998.83 957.935C2000.71 960.218 2002.72 962.434 2004.81 964.65C2006.89 966.866 2008.83 969.149 2010.98 971.365C2013.13 973.581 2016.89 977.543 2019.98 980.564L2026.7 986.876C2029.78 989.831 2032.94 992.584 2036.1 995.404C2038.04 997.15 2039.99 998.761 2041.94 1000.37C2053.93 1010.44 2066.56 1019.73 2079.74 1028.17C2125.47 1057.41 2177.25 1075.86 2231.16 1082.12C2285.07 1088.38 2339.7 1082.29 2390.91 1064.3C2470.77 1035.94 2538.22 980.58 2581.61 907.776C2613.87 855.906 2631.91 796.458 2633.91 735.407C2633.91 733.326 2633.91 731.378 2633.91 729.297C2633.91 727.215 2633.91 724.798 2633.91 722.582C2633.91 720.366 2633.91 718.083 2633.91 715.867C2632.19 653.713 2606.74 594.577 2562.78 550.598C2518.83 506.618 2459.71 481.133 2397.55 479.372H2384.12C2323.01 481.107 2264.78 505.774 2221.01 548.47C2177.24 591.167 2151.14 648.767 2147.9 709.824C2149.88 646.334 2167.85 584.369 2200.14 529.666C2243.56 456.91 2311 401.58 2390.84 373.212C2442.05 355.223 2496.68 349.127 2550.59 355.386C2604.5 361.645 2656.28 380.095 2702 409.337C2708.72 413.635 2715.43 418.201 2722.15 422.767L2729.33 428.206C2737.52 434.518 2745.4 441.232 2752.97 448.35C2754.58 449.76 2756.12 451.17 2757.6 452.648C2759.08 454.125 2760.62 455.535 2762.1 457.012C2762.56 457.427 2762.98 457.876 2763.38 458.355C2765.52 460.437 2767.61 462.585 2769.75 464.734L2770.9 466.01C2773.04 468.226 2775.13 470.442 2777.07 472.725C2779.02 475.008 2781.1 477.089 2782.98 479.44C2784.86 481.79 2785.87 482.864 2787.28 484.61C2788.69 486.356 2789.83 489.848 2791.04 491.325C2792.25 492.802 2792.32 490.653 2792.92 491.325C2793.52 491.996 2795.81 495.018 2797.29 496.898C2798.76 498.778 2799.43 499.718 2800.44 501.196C2801.45 502.673 2802.46 503.949 2803.46 505.359L2806.89 510.193L2812.66 518.923L2815.68 523.623C2816.69 525.167 2817.56 526.779 2818.5 528.323C2819.44 529.868 2820.38 531.345 2821.26 532.889L2824.28 538.06L2826.16 541.686C2827.37 543.79 2828.51 545.871 2829.58 547.93C2831.06 550.751 2832.54 553.705 2833.95 556.593C2835.36 559.48 2836.1 561.091 2837.17 563.307C2839.19 567.739 2841.2 572.171 2843.01 576.737C2843.68 578.281 2844.36 579.893 2844.96 581.437C2845.56 582.982 2846.97 586.339 2847.85 588.756C2848.72 591.174 2850.2 597.351 2851.27 600.507C2851.68 601.582 2852.08 600.507 2852.41 601.514C2853.29 604.133 2854.09 606.819 2854.9 609.438C2856.38 614.071 2857.72 618.704 2858.93 623.405C2859.67 625.755 2860.27 628.239 2860.87 630.657C2861.75 634.215 2862.62 637.774 2863.36 641.4C2864.1 645.026 2864.84 648.652 2865.51 652.345C2867.59 663.291 2869.07 676.653 2870.07 687.934C2870.41 691.224 2870.68 694.649 2870.88 697.939C2870.91 698.386 2870.91 698.835 2870.88 699.282C2870.88 700.49 2870.88 701.699 2870.88 702.908C2870.88 704.116 2870.88 704.788 2870.88 705.795C2870.88 707.944 2870.88 710.16 2870.88 712.51C2870.88 715.867 2870.88 719.225 2870.88 722.649C2870.88 726.074 2870.88 729.364 2870.88 732.654C2870.88 737.019 2870.54 741.316 2870.27 745.681C2864.57 864.939 2814.63 977.791 2730.2 1062.22C2645.78 1146.64 2532.93 1196.58 2413.67 1202.29C2409.37 1202.29 2405.07 1202.82 2400.78 1202.89H2390.64H2380.5C2376.2 1202.89 2371.9 1202.56 2367.61 1202.29C2121.04 1190.67 1923.15 987.749 1911 741.384C1911.13 741.115 1911.07 740.712 1911.07 740.242Z" fill="url(#paint12_linear_551_320)" fill-opacity="0.4"/>
<path d="M1911.07 740.242C1911.47 747.695 1912.14 755.082 1913.01 762.468C1914.58 774.778 1916.69 786.887 1919.33 798.795C1919.93 801.884 1920.67 804.905 1921.48 807.927C1922.62 812.56 1923.89 817.126 1925.17 821.357L1927.52 829.146C1928.53 832.369 1929.67 835.861 1930.74 838.815C1931.35 840.628 1932.02 842.441 1932.69 844.187C1933.36 845.933 1934.03 847.947 1934.77 849.895C1935.09 850.889 1935.5 851.855 1935.98 852.782C1936.92 855.423 1937.93 857.975 1939 860.437C1940.28 863.526 1941.62 866.547 1942.96 869.569L1945.38 874.874L1947.93 880.044C1950.08 884.61 1952.36 888.975 1954.65 893.474C1955.86 895.891 1957.27 898.308 1958.61 900.726L1959.88 902.941C1961.03 904.889 1962.17 906.836 1963.38 908.716L1966.2 913.484L1969.22 918.184C1970.16 919.661 1971.1 921.071 1972.17 922.616C1973.98 925.369 1975.87 928.189 1977.88 930.942C1979.89 933.695 1980.43 934.635 1981.77 936.448L1984.66 940.208C1986.41 942.626 1988.22 944.976 1990.1 947.259C1991.85 949.542 1993.66 951.691 1995.47 953.974C1997.29 956.257 1997.69 956.66 1998.83 957.935C2000.71 960.218 2002.72 962.434 2004.81 964.65C2006.89 966.866 2008.83 969.149 2010.98 971.365C2013.13 973.581 2016.89 977.543 2019.98 980.564L2026.7 986.876C2029.78 989.831 2032.94 992.584 2036.1 995.404C2038.04 997.15 2039.99 998.761 2041.94 1000.37C2053.93 1010.44 2066.56 1019.73 2079.74 1028.17C2125.47 1057.41 2177.25 1075.86 2231.16 1082.12C2285.07 1088.38 2339.7 1082.29 2390.91 1064.3C2470.77 1035.94 2538.22 980.58 2581.61 907.776C2613.87 855.906 2631.91 796.458 2633.91 735.407C2633.91 733.326 2633.91 731.378 2633.91 729.297C2633.91 727.215 2633.91 724.798 2633.91 722.582C2633.91 720.366 2633.91 718.083 2633.91 715.867C2632.19 653.713 2606.74 594.577 2562.78 550.598C2518.83 506.618 2459.71 481.133 2397.55 479.372H2384.12C2323.01 481.107 2264.78 505.774 2221.01 548.47C2177.24 591.167 2151.14 648.767 2147.9 709.824C2149.88 646.334 2167.85 584.369 2200.14 529.666C2243.56 456.91 2311 401.58 2390.84 373.212C2442.05 355.223 2496.68 349.127 2550.59 355.386C2604.5 361.645 2656.28 380.095 2702 409.337C2708.72 413.635 2715.43 418.201 2722.15 422.767L2729.33 428.206C2737.52 434.518 2745.4 441.232 2752.97 448.35C2754.58 449.76 2756.12 451.17 2757.6 452.648C2759.08 454.125 2760.62 455.535 2762.1 457.012C2762.56 457.427 2762.98 457.876 2763.38 458.355C2765.52 460.437 2767.61 462.585 2769.75 464.734L2770.9 466.01C2773.04 468.226 2775.13 470.442 2777.07 472.725C2779.02 475.008 2781.1 477.089 2782.98 479.44C2784.86 481.79 2785.87 482.864 2787.28 484.61C2788.69 486.356 2789.83 489.848 2791.04 491.325C2792.25 492.802 2792.32 490.653 2792.92 491.325C2793.52 491.996 2795.81 495.018 2797.29 496.898C2798.76 498.778 2799.43 499.718 2800.44 501.196C2801.45 502.673 2802.46 503.949 2803.46 505.359L2806.89 510.193L2812.66 518.923L2815.68 523.623C2816.69 525.167 2817.56 526.779 2818.5 528.323C2819.44 529.868 2820.38 531.345 2821.26 532.889L2824.28 538.06L2826.16 541.686C2827.37 543.79 2828.51 545.871 2829.58 547.93C2831.06 550.751 2832.54 553.705 2833.95 556.593C2835.36 559.48 2836.1 561.091 2837.17 563.307C2839.19 567.739 2841.2 572.171 2843.01 576.737C2843.68 578.281 2844.36 579.893 2844.96 581.437C2845.56 582.982 2846.97 586.339 2847.85 588.756C2848.72 591.174 2850.2 597.351 2851.27 600.507C2851.68 601.582 2852.08 600.507 2852.41 601.514C2853.29 604.133 2854.09 606.819 2854.9 609.438C2856.38 614.071 2857.72 618.704 2858.93 623.405C2859.67 625.755 2860.27 628.239 2860.87 630.657C2861.75 634.215 2862.62 637.774 2863.36 641.4C2864.1 645.026 2864.84 648.652 2865.51 652.345C2867.59 663.291 2869.07 676.653 2870.07 687.934C2870.41 691.224 2870.68 694.649 2870.88 697.939C2870.91 698.386 2870.91 698.835 2870.88 699.282C2870.88 700.49 2870.88 701.699 2870.88 702.908C2870.88 704.116 2870.88 704.788 2870.88 705.795C2870.88 707.944 2870.88 710.16 2870.88 712.51C2870.88 715.867 2870.88 719.225 2870.88 722.649C2870.88 726.074 2870.88 729.364 2870.88 732.654C2870.88 737.019 2870.54 741.316 2870.27 745.681C2864.57 864.939 2814.63 977.791 2730.2 1062.22C2645.78 1146.64 2532.93 1196.58 2413.67 1202.29C2409.37 1202.29 2405.07 1202.82 2400.78 1202.89H2390.64H2380.5C2376.2 1202.89 2371.9 1202.56 2367.61 1202.29C2121.04 1190.67 1923.15 987.749 1911 741.384C1911.13 741.115 1911.07 740.712 1911.07 740.242Z" fill="url(#paint13_linear_551_320)" fill-opacity="0.2"/>
<defs>
<linearGradient id="paint0_linear_551_320" x1="224.543" y1="1002.42" x2="1111.63" y2="1002.42" gradientUnits="userSpaceOnUse">
<stop offset="0.16" stop-color="#008DF7"/>
<stop offset="1" stop-color="#1199FF"/>
</linearGradient>
<linearGradient id="paint1_linear_551_320" x1="171.5" y1="777.858" x2="1289.33" y2="1409.48" gradientUnits="userSpaceOnUse">
<stop/>
<stop offset="1" stop-color="white" stop-opacity="0"/>
</linearGradient>
<linearGradient id="paint2_linear_551_320" x1="1519.76" y1="897.402" x2="1772.5" y2="316.64" gradientUnits="userSpaceOnUse">
<stop stop-color="#008DF7"/>
<stop offset="1" stop-color="#1199FF"/>
</linearGradient>
<linearGradient id="paint3_linear_551_320" x1="1337.65" y1="1249.06" x2="1728.19" y2="448.317" gradientUnits="userSpaceOnUse">
<stop/>
<stop offset="1" stop-color="white" stop-opacity="0"/>
</linearGradient>
<linearGradient id="paint4_linear_551_320" x1="1090.62" y1="327.786" x2="1453.42" y2="1132.22" gradientUnits="userSpaceOnUse">
<stop stop-color="#00BBFF"/>
<stop offset="1" stop-color="#1199FF"/>
</linearGradient>
<linearGradient id="paint5_linear_551_320" x1="341.111" y1="579.792" x2="511.197" y2="228.475" gradientUnits="userSpaceOnUse">
<stop stop-color="#1199FF"/>
<stop offset="1" stop-color="#008DF7"/>
</linearGradient>
<linearGradient id="paint6_linear_551_320" x1="476.347" y1="1229.31" x2="878.563" y2="207.525" gradientUnits="userSpaceOnUse">
<stop stop-color="#1199FF"/>
<stop offset="0.5" stop-color="#00BBFF"/>
<stop offset="1" stop-color="#00BBFF"/>
</linearGradient>
<linearGradient id="paint7_linear_551_320" x1="537.183" y1="-332.613" x2="362.321" y2="716.769" gradientUnits="userSpaceOnUse">
<stop/>
<stop offset="1" stop-color="white" stop-opacity="0"/>
</linearGradient>
<linearGradient id="paint8_linear_551_320" x1="2414" y1="1033.36" x2="2023" y2="68.3576" gradientUnits="userSpaceOnUse">
<stop stop-opacity="0.11"/>
<stop offset="1" stop-color="white" stop-opacity="0"/>
</linearGradient>
<linearGradient id="paint9_linear_551_320" x1="2376" y1="1059.5" x2="2701" y2="391.5" gradientUnits="userSpaceOnUse">
<stop stop-color="#2DA2FF"/>
<stop offset="1" stop-color="#19BFFF"/>
</linearGradient>
<linearGradient id="paint10_linear_551_320" x1="2607.5" y1="866" x2="2583" y2="770" gradientUnits="userSpaceOnUse">
<stop stop-opacity="0.47"/>
<stop offset="1" stop-opacity="0"/>
</linearGradient>
<linearGradient id="paint11_linear_551_320" x1="2367.91" y1="422.391" x2="2096" y2="1077.5" gradientUnits="userSpaceOnUse">
<stop stop-color="#00B2FF"/>
<stop offset="0.417007" stop-color="#2AD2FF"/>
<stop offset="1" stop-color="#32BBFF"/>
</linearGradient>
<linearGradient id="paint12_linear_551_320" x1="2390.95" y1="353" x2="2390.95" y2="1202.89" gradientUnits="userSpaceOnUse">
<stop stop-color="#008DF7"/>
<stop offset="1" stop-color="#008DF7" stop-opacity="0"/>
</linearGradient>
<linearGradient id="paint13_linear_551_320" x1="2320" y1="453.5" x2="2469.5" y2="618.5" gradientUnits="userSpaceOnUse">
<stop/>
<stop offset="1" stop-opacity="0"/>
</linearGradient>
</defs>
</svg>
