<?xml version="1.0" standalone="no"?>
<!DOCTYPE svg PUBLIC "-//W3C//DTD SVG 20010904//EN"
 "http://www.w3.org/TR/2001/REC-SVG-20010904/DTD/svg10.dtd">
<svg version="1.0" xmlns="http://www.w3.org/2000/svg"
 width="438.000000pt" height="438.000000pt" viewBox="0 0 438.000000 438.000000"
 preserveAspectRatio="xMidYMid meet">
<metadata>
Created by potrace 1.14, written by Peter Selinger 2001-2017
</metadata>
<g transform="translate(0.000000,438.000000) scale(0.100000,-0.100000)"
fill="#000000" stroke="none">
<path d="M2188 4375 c-2 -2 -23 -5 -48 -8 -104 -12 -167 -40 -243 -107 -56
-49 -91 -107 -163 -270 -29 -63 -83 -185 -122 -270 -109 -241 -266 -590 -317
-705 -7 -16 -24 -55 -38 -85 -14 -30 -68 -152 -122 -270 -126 -280 -108 -240
-234 -519 -67 -147 -111 -257 -111 -276 0 -20 9 -42 25 -59 37 -40 75 -35 175
25 230 138 556 263 770 294 95 14 92 10 234 325 40 91 89 199 108 240 19 41
45 99 58 128 13 28 26 52 29 52 3 0 21 -35 40 -78 45 -103 424 -937 467 -1031
19 -40 33 -75 32 -77 -2 -2 -31 3 -63 10 -33 8 -80 17 -105 20 -25 3 -56 8
-70 11 -116 23 -466 23 -600 1 -14 -3 -43 -7 -65 -11 -138 -20 -378 -84 -470
-124 -11 -5 -40 -17 -65 -27 -91 -36 -290 -143 -381 -204 -209 -140 -401 -318
-560 -520 -106 -135 -178 -287 -183 -385 -8 -165 88 -328 236 -403 79 -39 124
-49 214 -47 81 3 128 16 199 56 68 38 115 86 189 194 75 111 212 250 331 338
175 130 438 238 638 263 23 3 56 7 72 10 40 6 261 5 305 -2 19 -3 60 -10 90
-15 30 -6 68 -13 83 -15 63 -12 218 -69 312 -116 218 -108 419 -284 555 -488
61 -90 117 -142 191 -179 187 -91 403 -45 534 115 62 77 88 149 91 258 3 84 1
94 -31 164 -19 40 -35 75 -35 78 0 2 -20 47 -45 100 -25 53 -45 97 -45 99 0 2
-15 36 -34 77 -19 40 -76 165 -126 278 -51 113 -100 223 -110 245 -10 22 -39
87 -65 145 -26 58 -65 142 -86 188 -21 46 -39 85 -39 87 0 2 -15 36 -34 77
-46 100 -78 171 -146 323 -32 72 -72 161 -90 199 -17 39 -100 223 -185 410
-84 188 -164 366 -178 396 -47 102 -165 364 -205 455 -22 50 -51 115 -65 145
-14 30 -37 82 -52 115 -65 143 -87 183 -123 221 -53 57 -99 89 -160 113 -45
18 -157 42 -164 36z"/>
</g>
</svg>
